<svg viewBox="0 0 596.16 174.73" xmlns="http://www.w3.org/2000/svg"><path d="m0 171.37h35.28v-120.25h.48l42 120.25h29l42-121.45h.48v121.45h35.29v-171.37h-53l-37.92 117.85h-.48l-40.13-117.85h-53zm326.89-53.76c2.4-38.17-18-73.69-60.25-73.69-37.68 0-63.36 28.32-63.36 65.53 0 38.4 24.24 65.28 63.36 65.28 28.08 0 48.49-12.48 58.09-41.76h-30c-2.16 7.68-13.2 16.08-26.88 16.08-19 0-29.53-9.84-30.49-31.44zm-89.53-21.61c.48-9.6 6.72-26.41 28.32-26.41 16.56 0 24 9.12 27.12 26.41zm104.88 75.36h34.08v-65c0-25.21 7.92-35.53 26.4-35.53 15.84 0 21.84 10.08 21.84 30.49v70.08h34.09v-76.35c0-30.73-9.12-51.13-45.36-51.13-14.4 0-29.29 6.72-37.93 20.64h-.72v-17.28h-32.4v124.09zm253.92-124.08h-34.08v65.05c0 25.2-7.92 35.52-26.4 35.52-15.84 0-21.84-10.08-21.84-30.48v-70.09h-34.09v76.33c0 30.72 9.12 51.12 45.36 51.12 14.4 0 29.29-6.72 37.93-20.64h.72v17.28h32.4z" fill-rule="evenodd"/></svg>