<svg viewBox="0 0 482.35 132.92" xmlns="http://www.w3.org/2000/svg" xmlns:xlink="http://www.w3.org/1999/xlink"><clipPath id="a"><path d="m0 0h482.35v132.92h-482.35z"/></clipPath><g clip-path="url(#a)"><path d="m132.67 85.42c-1-6.37-6.58-8.37-15.71-8.37h-89.53c-9.52 0-15.34 2-16.38 8.37-2.28 14 .59 30.45 62.08 30.45s61.73-16.4 59.54-30.45"/><path d="m119.54 46.63c-13.54 0-33.81 7.37-48.54 7.37-19 0-33.8-8.14-48.59-8.14s-22.41 8.08-22.41 17.42 8.8 17 22.36 17h.39c2 9 6.26 12.09 9.92 12.09 11.18 0 9-11.34 16.95-11.34 6.8 0 6.24 7.56 18 7.56 15.68 0 14.77 18.16 30.52 18.16 13.16 0 19.45-14.34 22.37-25.7 14.16-.34 21.42-8.28 21.42-17.41 0-9.33-8.8-17-22.35-17" fill="#fbc200"/><path d="m70.29 0c-38.05 0-64.29 21.26-62.02 39.48 1 8.26.05 19.32 62 19.32s63.6-11.06 64.73-19.32c2.33-18.22-25-39.48-64.71-39.48"/><path d="m185.82 16.79a9.41 9.41 0 0 0 -2-2.29 9.56 9.56 0 0 0 -2.82-1.5 9.68 9.68 0 0 0 -3.22-.55 10.66 10.66 0 0 0 -5.22 1.19 9.92 9.92 0 0 0 -3.49 3.19 14.15 14.15 0 0 0 -1.94 4.56 22.44 22.44 0 0 0 -.61 5.28 21 21 0 0 0 .61 5.08 13.88 13.88 0 0 0 1.94 4.44 9.93 9.93 0 0 0 3.49 3.16 10.66 10.66 0 0 0 5.22 1.19 8.45 8.45 0 0 0 6.56-2.54 11.9 11.9 0 0 0 2.87-6.74h8.79a21 21 0 0 1 -1.8 7 16.86 16.86 0 0 1 -3.83 5.33 16.24 16.24 0 0 1 -5.57 3.37 20.51 20.51 0 0 1 -7 1.16 21.29 21.29 0 0 1 -8.56-1.65 18.3 18.3 0 0 1 -6.41-4.56 20.2 20.2 0 0 1 -4-6.82 25 25 0 0 1 -1.39-8.44 25.89 25.89 0 0 1 1.39-8.65 20.7 20.7 0 0 1 4-6.93 18.24 18.24 0 0 1 6.41-4.64 22.14 22.14 0 0 1 15-.7 17.64 17.64 0 0 1 5.45 2.87 15.66 15.66 0 0 1 4 4.67 16.81 16.81 0 0 1 2 6.39h-8.82a7.61 7.61 0 0 0 -1-2.88"/><path d="m208.45 5.74v15.61h.17a9.52 9.52 0 0 1 4-3.8 10.9 10.9 0 0 1 4.76-1.19 14 14 0 0 1 5.43.9 8 8 0 0 1 3.33 2.49 9.61 9.61 0 0 1 1.72 3.89 24.81 24.81 0 0 1 .49 5.08v18.45h-8.24v-16.94a10.51 10.51 0 0 0 -1.11-5.54c-.78-1.22-2.15-1.83-4.12-1.83q-3.37 0-4.87 2c-1 1.34-1.51 3.53-1.51 6.59v15.72h-8.24v-41.43z"/><path d="m242.27 40a8.45 8.45 0 0 0 9.64.55 5.14 5.14 0 0 0 2.2-2.64h7.26q-1.74 5.4-5.34 7.72a15.79 15.79 0 0 1 -8.71 2.32 17.18 17.18 0 0 1 -6.38-1.13 13.29 13.29 0 0 1 -4.82-3.23 14.4 14.4 0 0 1 -3-5 18.14 18.14 0 0 1 -1.12-6.39 17.44 17.44 0 0 1 1.1-6.27 14.53 14.53 0 0 1 8-8.35 15.61 15.61 0 0 1 6.24-1.22 14.24 14.24 0 0 1 6.66 1.48 13.44 13.44 0 0 1 4.67 4 16.33 16.33 0 0 1 2.64 5.69 21.36 21.36 0 0 1 .58 6.67h-21.65q.18 4 2 5.81m9.32-15.79a5.81 5.81 0 0 0 -4.5-1.62 7.12 7.12 0 0 0 -3.28.67 6.23 6.23 0 0 0 -2.09 1.65 6 6 0 0 0 -1.1 2.09 9.67 9.67 0 0 0 -.38 2h13.41a9.64 9.64 0 0 0 -2.06-4.76"/><path d="m274.42 40a8.45 8.45 0 0 0 9.64.55 5.19 5.19 0 0 0 2.2-2.64h7.25q-1.74 5.4-5.33 7.72a15.81 15.81 0 0 1 -8.71 2.32 17.18 17.18 0 0 1 -6.38-1.13 13.29 13.29 0 0 1 -4.82-3.23 14.4 14.4 0 0 1 -3-5 18.14 18.14 0 0 1 -1.08-6.38 17.66 17.66 0 0 1 1.1-6.27 14.59 14.59 0 0 1 8-8.35 15.61 15.61 0 0 1 6.24-1.22 14.2 14.2 0 0 1 6.67 1.48 13.38 13.38 0 0 1 4.68 4 16.7 16.7 0 0 1 2.64 5.69 21.36 21.36 0 0 1 .58 6.67h-21.71c.12 2.67.79 4.61 2 5.81m9.32-15.79a5.81 5.81 0 0 0 -4.5-1.62 7.09 7.09 0 0 0 -3.28.67 6.13 6.13 0 0 0 -2.09 1.65 6 6 0 0 0 -1.1 2.09 9.67 9.67 0 0 0 -.38 2h13.44a9.64 9.64 0 0 0 -2.06-4.76"/><path d="m304.68 39.72a4.76 4.76 0 0 0 1.43 1.56 5.8 5.8 0 0 0 2 .9 9.06 9.06 0 0 0 2.35.29 8.53 8.53 0 0 0 1.83-.2 6.57 6.57 0 0 0 1.74-.64 4 4 0 0 0 1.3-1.16 3 3 0 0 0 .52-1.83c0-1.24-.82-2.16-2.46-2.78a49.49 49.49 0 0 0 -6.88-1.86q-1.8-.41-3.51-1a11.78 11.78 0 0 1 -3-1.41 7 7 0 0 1 -2.14-2.26 6.34 6.34 0 0 1 -.86-3.33 9 9 0 0 1 1.14-4.76 8.39 8.39 0 0 1 3-2.93 13.34 13.34 0 0 1 4.17-1.51 25.85 25.85 0 0 1 4.76-.43 23.71 23.71 0 0 1 4.73.46 12.62 12.62 0 0 1 4.09 1.57 9.39 9.39 0 0 1 3 2.93 9.84 9.84 0 0 1 1.42 4.61h-7.83a3.63 3.63 0 0 0 -1.8-3.22 8.25 8.25 0 0 0 -3.83-.84 13.68 13.68 0 0 0 -1.51.09 4.88 4.88 0 0 0 -1.48.38 2.94 2.94 0 0 0 -1.13.84 2.23 2.23 0 0 0 -.47 1.48 2.29 2.29 0 0 0 .82 1.8 6.28 6.28 0 0 0 2.11 1.13 26.21 26.21 0 0 0 3 .78c1.12.23 2.27.49 3.43.76s2.37.6 3.51 1a11.58 11.58 0 0 1 3 1.54 7.42 7.42 0 0 1 2.15 2.32 7 7 0 0 1 .81 3.51 9.49 9.49 0 0 1 -1.19 5 9.38 9.38 0 0 1 -3.1 3.22 12.85 12.85 0 0 1 -4.38 1.71 25.51 25.51 0 0 1 -5 .5 24.82 24.82 0 0 1 -5.11-.53 13.21 13.21 0 0 1 -4.44-1.74 9.54 9.54 0 0 1 -4.55-8.24h7.83a4.63 4.63 0 0 0 .55 2.3"/><path d="m336.57 40a8.44 8.44 0 0 0 9.63.55 5.22 5.22 0 0 0 2.21-2.64h7.25q-1.74 5.4-5.34 7.72a15.77 15.77 0 0 1 -8.7 2.32 17.28 17.28 0 0 1 -6.39-1.13 13.25 13.25 0 0 1 -4.81-3.23 14.42 14.42 0 0 1 -3.05-5 18.14 18.14 0 0 1 -1.07-6.38 17.44 17.44 0 0 1 1.1-6.27 14.51 14.51 0 0 1 8-8.35 15.54 15.54 0 0 1 6.24-1.22 14.23 14.23 0 0 1 6.67 1.48 13.44 13.44 0 0 1 4.67 4 16.33 16.33 0 0 1 2.64 5.69 21.06 21.06 0 0 1 .58 6.67h-21.66q.16 4 2 5.81m9.31-15.79a5.8 5.8 0 0 0 -4.5-1.62 7.08 7.08 0 0 0 -3.27.67 6.13 6.13 0 0 0 -2.08 1.61 6.05 6.05 0 0 0 -1.09 2.11 9 9 0 0 0 -.37 2h13.4a9.55 9.55 0 0 0 -2.06-4.76"/><path d="m367.73 17.17v4.18h.17a9.45 9.45 0 0 1 4.07-3.8 11.75 11.75 0 0 1 5.1-1.19 14 14 0 0 1 5.43.9 8 8 0 0 1 3.33 2.49 9.47 9.47 0 0 1 1.71 3.89 24.1 24.1 0 0 1 .5 5.08v18.45h-8.24v-16.94a10.54 10.54 0 0 0 -1.16-5.54c-.78-1.22-2.15-1.83-4.12-1.83-2.25 0-3.87.67-4.88 2s-1.5 3.53-1.5 6.59v15.72h-8.25v-30z"/><path d="m402 40a8.45 8.45 0 0 0 9.64.55 5.14 5.14 0 0 0 2.2-2.64h7.26q-1.74 5.4-5.34 7.72a15.79 15.79 0 0 1 -8.76 2.3 17.18 17.18 0 0 1 -6.38-1.13 13.29 13.29 0 0 1 -4.82-3.23 14.4 14.4 0 0 1 -3-5 18.14 18.14 0 0 1 -1.08-6.38 17.45 17.45 0 0 1 1.11-6.27 14.53 14.53 0 0 1 8-8.35 15.61 15.61 0 0 1 6.17-1.21 14.24 14.24 0 0 1 6.68 1.48 13.44 13.44 0 0 1 4.67 4 16.33 16.33 0 0 1 2.65 5.66 21.36 21.36 0 0 1 .58 6.67h-21.65q.18 4 2 5.81m9.32-15.79a5.81 5.81 0 0 0 -4.5-1.62 7.12 7.12 0 0 0 -3.28.67 6.23 6.23 0 0 0 -2.09 1.65 6 6 0 0 0 -1.1 2.09 9.67 9.67 0 0 0 -.38 2h13.41a9.64 9.64 0 0 0 -2.06-4.76"/><path d="m432.23 39.72a4.73 4.73 0 0 0 1.42 1.56 6 6 0 0 0 2 .9 9.12 9.12 0 0 0 2.35.29 8.53 8.53 0 0 0 1.83-.2 6.32 6.32 0 0 0 1.74-.64 3.92 3.92 0 0 0 1.3-1.16 3 3 0 0 0 .53-1.83c0-1.24-.83-2.16-2.47-2.78a49.1 49.1 0 0 0 -6.88-1.86q-1.8-.41-3.51-1a11.71 11.71 0 0 1 -3-1.45 7 7 0 0 1 -2.15-2.26 6.43 6.43 0 0 1 -.81-3.34 9.09 9.09 0 0 1 1.13-4.76 8.39 8.39 0 0 1 3-2.93 13.49 13.49 0 0 1 4.18-1.51 25.67 25.67 0 0 1 4.75-.43 23.71 23.71 0 0 1 4.73.46 12.62 12.62 0 0 1 4.09 1.57 9.39 9.39 0 0 1 3 2.93 9.84 9.84 0 0 1 1.42 4.61h-7.88a3.63 3.63 0 0 0 -1.8-3.22 8.23 8.23 0 0 0 -3.83-.84 13.82 13.82 0 0 0 -1.51.09 5 5 0 0 0 -1.48.38 3 3 0 0 0 -1.13.84 2.22 2.22 0 0 0 -.46 1.48 2.28 2.28 0 0 0 .81 1.8 6.33 6.33 0 0 0 2.12 1.13 25.67 25.67 0 0 0 3 .78c1.12.23 2.26.49 3.42.76a36.28 36.28 0 0 1 3.51 1 11.64 11.64 0 0 1 3.05 1.54 7.39 7.39 0 0 1 2.12 2.37 6.91 6.91 0 0 1 .82 3.51 9.1 9.1 0 0 1 -4.3 8.18 12.69 12.69 0 0 1 -4.34 1.74 25.44 25.44 0 0 1 -5 .5 24.66 24.66 0 0 1 -5.1-.53 13 13 0 0 1 -4.44-1.74 9.82 9.82 0 0 1 -3.19-3.22 10 10 0 0 1 -1.37-5h7.83a4.53 4.53 0 0 0 .56 2.3"/><path d="m462.22 39.72a4.76 4.76 0 0 0 1.43 1.56 5.8 5.8 0 0 0 2 .9 9.06 9.06 0 0 0 2.35.29 8.53 8.53 0 0 0 1.83-.2 6.57 6.57 0 0 0 1.74-.64 4 4 0 0 0 1.3-1.16 3 3 0 0 0 .52-1.83c0-1.24-.82-2.16-2.46-2.78a49.49 49.49 0 0 0 -6.88-1.86q-1.8-.41-3.51-1a11.78 11.78 0 0 1 -3.05-1.45 7 7 0 0 1 -2.14-2.26 6.34 6.34 0 0 1 -.82-3.34 9 9 0 0 1 1.14-4.76 8.39 8.39 0 0 1 3-2.93 13.34 13.34 0 0 1 4.17-1.51 25.85 25.85 0 0 1 4.76-.43 23.71 23.71 0 0 1 4.73.46 12.62 12.62 0 0 1 4.09 1.57 9.39 9.39 0 0 1 3 2.93 9.84 9.84 0 0 1 1.42 4.61h-7.84a3.63 3.63 0 0 0 -1.8-3.22 8.25 8.25 0 0 0 -3.83-.84 13.68 13.68 0 0 0 -1.51.09 4.88 4.88 0 0 0 -1.48.38 2.94 2.94 0 0 0 -1.13.84 2.23 2.23 0 0 0 -.47 1.48 2.29 2.29 0 0 0 .82 1.8 6.28 6.28 0 0 0 2.11 1.13 26.21 26.21 0 0 0 3 .78c1.12.23 2.27.49 3.43.76s2.37.6 3.51 1a11.58 11.58 0 0 1 3 1.54 7.42 7.42 0 0 1 2.17 2.37 7 7 0 0 1 .81 3.51 9.49 9.49 0 0 1 -1.19 5 9.38 9.38 0 0 1 -3.1 3.22 12.85 12.85 0 0 1 -4.34 1.7 25.51 25.51 0 0 1 -5 .5 24.82 24.82 0 0 1 -5.11-.53 13.21 13.21 0 0 1 -4.44-1.74 9.54 9.54 0 0 1 -4.55-8.24h7.83a4.63 4.63 0 0 0 .55 2.3"/><path d="m183.9 62.92a24.78 24.78 0 0 1 5.07.49 11.11 11.11 0 0 1 3.92 1.59 7.57 7.57 0 0 1 2.54 3 10.44 10.44 0 0 1 .9 4.58 8.55 8.55 0 0 1 -1.33 4.9 9.75 9.75 0 0 1 -4 3.22 9.32 9.32 0 0 1 5.37 3.62 11.93 11.93 0 0 1 .63 11.34 10 10 0 0 1 -3 3.52 13.52 13.52 0 0 1 -4.42 2 19.71 19.71 0 0 1 -5.1.66h-18.9v-38.92zm-1.09 15.76a6.2 6.2 0 0 0 3.76-1.09 4.13 4.13 0 0 0 1.43-3.59 4.49 4.49 0 0 0 -.49-2.23 3.57 3.57 0 0 0 -1.31-1.36 5.47 5.47 0 0 0 -1.88-.69 13.17 13.17 0 0 0 -2.21-.19h-8v9.11zm.49 16.52a11.1 11.1 0 0 0 2.4-.25 5.64 5.64 0 0 0 2-.82 4.09 4.09 0 0 0 1.39-1.55 5.28 5.28 0 0 0 .52-2.51c0-2-.56-3.42-1.69-4.28a7.25 7.25 0 0 0 -4.47-1.28h-9.32v10.69z"/><path d="m221.14 101.85v-3.93h-.14a8.68 8.68 0 0 1 -3.82 3.55 11.34 11.34 0 0 1 -4.79 1.09 13.47 13.47 0 0 1 -5.1-.82 7.35 7.35 0 0 1 -3.14-2.32 9.09 9.09 0 0 1 -1.6-3.65 22.62 22.62 0 0 1 -.47-4.77v-17.34h7.75v15.92a9.87 9.87 0 0 0 1.09 5.21c.72 1.14 2 1.72 3.87 1.72a5.39 5.39 0 0 0 4.58-1.88q1.41-1.89 1.41-6.19v-14.78h7.75v28.19z"/><path d="m240.65 73.66v5.24h.11a9.33 9.33 0 0 1 1.47-2.43 9.92 9.92 0 0 1 2.13-1.91 10.56 10.56 0 0 1 2.56-1.22 9 9 0 0 1 2.84-.44 6.15 6.15 0 0 1 1.69.27v7.2c-.37-.07-.8-.14-1.31-.19a12.52 12.52 0 0 0 -1.47-.08 8.14 8.14 0 0 0 -3.6.71 6.18 6.18 0 0 0 -2.37 1.93 7.87 7.87 0 0 0 -1.29 2.86 15.84 15.84 0 0 0 -.38 3.55v12.7h-7.74v-28.19z"/><path d="m278.52 103.92a9.55 9.55 0 0 1 -2 4.06 11.65 11.65 0 0 1 -4.41 3.19 19.09 19.09 0 0 1 -7.74 1.31 17.86 17.86 0 0 1 -4.23-.52 13.22 13.22 0 0 1 -3.92-1.61 9.51 9.51 0 0 1 -3-2.8 8.19 8.19 0 0 1 -1.33-4.12h7.68a4.49 4.49 0 0 0 2.13 3 7.65 7.65 0 0 0 3.65.84 5.62 5.62 0 0 0 4.77-2 7.73 7.73 0 0 0 1.45-5v-3.6h-.11a7.71 7.71 0 0 1 -3.57 3.3 11.56 11.56 0 0 1 -4.88 1.06 12.21 12.21 0 0 1 -5.45-1.12 10.24 10.24 0 0 1 -3.76-3 12.72 12.72 0 0 1 -2.16-4.52 21.71 21.71 0 0 1 -.68-5.48 17.45 17.45 0 0 1 .79-5.26 13.72 13.72 0 0 1 2.32-4.48 11.19 11.19 0 0 1 3.84-3.17 11.37 11.37 0 0 1 5.2-1.14 11 11 0 0 1 4.88 1 8.54 8.54 0 0 1 3.52 3.49h.11v-3.69h7.38v26.39a19.42 19.42 0 0 1 -.46 3.87m-10.61-9.38a5.85 5.85 0 0 0 2.07-1.74 7.58 7.58 0 0 0 1.23-2.48 10.41 10.41 0 0 0 .41-2.92 15.92 15.92 0 0 0 -.33-3.3 8.29 8.29 0 0 0 -1.09-2.75 5.61 5.61 0 0 0 -2-1.91 6.37 6.37 0 0 0 -3.16-.71 5.64 5.64 0 0 0 -2.81.66 5.82 5.82 0 0 0 -2 1.77 7.27 7.27 0 0 0 -1.14 2.56 12.45 12.45 0 0 0 -.36 3 15.31 15.31 0 0 0 .3 3 8.21 8.21 0 0 0 1 2.7 5.93 5.93 0 0 0 1.93 2 5.48 5.48 0 0 0 3 .77 6.1 6.1 0 0 0 2.89-.66"/><path d="m292.39 95.09a7.94 7.94 0 0 0 9.05.52 4.82 4.82 0 0 0 2.07-2.48h6.82q-1.63 5.07-5 7.25a14.79 14.79 0 0 1 -8.18 2.18 16.06 16.06 0 0 1 -6-1.07 12.39 12.39 0 0 1 -4.53-3 13.66 13.66 0 0 1 -2.86-4.69 17.25 17.25 0 0 1 -1-6 16.47 16.47 0 0 1 1-5.89 13.65 13.65 0 0 1 7.51-7.91 14.65 14.65 0 0 1 5.86-1.14 13.36 13.36 0 0 1 6.27 1.39 12.53 12.53 0 0 1 4.39 3.75 15.36 15.36 0 0 1 2.48 5.35 20 20 0 0 1 .55 6.27h-20.34q.16 3.75 1.91 5.45m8.75-14.83a5.42 5.42 0 0 0 -4.22-1.53 6.67 6.67 0 0 0 -3.08.63 6 6 0 0 0 -2 1.55 5.74 5.74 0 0 0 -1 2 9.07 9.07 0 0 0 -.36 1.85h12.6a9 9 0 0 0 -1.94-4.47"/><path d="m321.67 73.66v5.24h.1a9.85 9.85 0 0 1 3.6-4.34 10.63 10.63 0 0 1 2.57-1.22 8.91 8.91 0 0 1 2.83-.44 6.1 6.1 0 0 1 1.69.27v7.2c-.36-.07-.8-.14-1.31-.19a12.52 12.52 0 0 0 -1.47-.08 8.14 8.14 0 0 0 -3.6.71 6.18 6.18 0 0 0 -2.37 1.93 7.69 7.69 0 0 0 -1.28 2.86 15.28 15.28 0 0 0 -.38 3.55v12.7h-7.74v-28.19z"/><path d="m381.83 76.18.26-.49.34-.68c.18-.35.38-.73.55-1.1 0-.09.07-.14.27-.15l14.12-1.41c3.89-.36 7.88-.61 11.9-.73h1.25a4.77 4.77 0 0 0 3.82 1 6 6 0 0 0 2-.56 2.48 2.48 0 0 0 1.48-2.21c0-.57-.25-2-2.49-2.5-.74-.15-3-.62-19.31.9l-2.79.26c-4.13.38-6.56.57-8 .66a2.65 2.65 0 0 0 -.89-1.67 2.41 2.41 0 0 0 -1.81-.55 3.29 3.29 0 0 0 -2.11 1 5 5 0 0 0 -1.08 1.63 9.89 9.89 0 0 1 -2.73.62 282.81 282.81 0 0 0 -29.83 5.16h-.06a4.37 4.37 0 0 0 -2.59-.5c-2.83.26-3.3 2.22-3.38 2.82a1.62 1.62 0 0 0 0 .22 2.89 2.89 0 0 0 2.12 2.71l.25.08a3.91 3.91 0 0 0 1.3.07 70.88 70.88 0 0 0 8.22-1.79c8.36-1.97 16.54-3.47 24.41-4.51-.23.54-.5 1.15-.82 1.84-9.5 20.74-15.69 36.12-18.93 47-.44 1.39-.9 2.78-1.24 3.68a6.43 6.43 0 0 0 -.66 3.29v.15a2.45 2.45 0 0 0 2.18 2.54h.31a2.31 2.31 0 0 0 1-.31l.15-.09a2.44 2.44 0 0 0 1.29-2.1 1.5 1.5 0 0 0 0-.22v-.84c0-.78.46-3.06 2.68-9.67 3.55-10.61 9.32-24.19 17.11-40.28.21-.39.4-.75.58-1.07s.38-.68.58-1.09.34-.71.53-1.06m29.07-5.46h.12l-.59.76a.82.82 0 0 1 -.15-.12zm70.88 2.23a.91.91 0 0 0 -.07-.14 6.25 6.25 0 0 0 -4.95-2.86 6.59 6.59 0 0 0 -1.16 0c-2.6.24-4.51 1.38-6.93 3.27a17 17 0 0 0 -4.34 4.91 9.15 9.15 0 0 0 -1.61 4.33 1.12 1.12 0 0 1 -.19.68 28.78 28.78 0 0 0 -1.8 3.22h-.55c-1.31.13-3.35.56-5 .91h-.05a2.64 2.64 0 0 0 -.69-1.06 2.36 2.36 0 0 0 -1.81-.6c-1.43.14-2.38 1.46-3 2.63l-13.35 2.61c-1.26.2-2.82.44-3 2.34a1.09 1.09 0 0 0 0 .18 2.42 2.42 0 0 0 .78 1.84 3.39 3.39 0 0 0 2.68.66l.7-.12a5.39 5.39 0 0 0 1.29-.47 7.35 7.35 0 0 1 1.26-.5c1.64-.39 3.66-.84 5.48-1.24-1.65 1.85-3.8 4.2-6.1 6.59-5.81 6-7.79 7.73-11.7 10a18.64 18.64 0 0 1 -7.21 2.57 6.11 6.11 0 0 1 -5.27-1.65 11 11 0 0 1 -2.71-7.73c0-5.47 2.58-12.82 7.49-21.26 6.93-11.71 19.27-24.3 29.35-25.7a6.18 6.18 0 0 1 4.53 1.27 3.42 3.42 0 0 1 1.28 2.22l.05 1.23a23.65 23.65 0 0 1 -2.78 11 19.1 19.1 0 0 1 -1.48 2.18 3.94 3.94 0 0 0 -1.14 2.31 2 2 0 0 0 1.09 1.81 2.39 2.39 0 0 0 1.63.42 3 3 0 0 0 2.24-1.45 30.36 30.36 0 0 0 4.91-16c0-.68-.05-1.31-.11-1.92-.52-4.62-5.13-7.86-10.5-7.36a11.39 11.39 0 0 0 -1.34.18c-12.08 2.42-24.93 15.94-31.75 27.48-3.68 6.15-8.06 15.18-8 23.29a15.72 15.72 0 0 0 4.16 11.22 11.07 11.07 0 0 0 9 3c6.86-.64 14.31-5.69 23.76-16.2-2.6 7.88-5.93 18.78-5.93 20.67a1.61 1.61 0 0 0 .06.44 2.21 2.21 0 0 0 2.22 1.8h.28a2.79 2.79 0 0 0 1.37-.54c.85-.56 1.14-1.65 1.32-3.25.68-4.77 3.89-17.09 7.9-24.67l1.87-3.7 5-.85v.09a11.47 11.47 0 0 0 -.3 2.77 6.45 6.45 0 0 0 1.33 4 5.22 5.22 0 0 0 4.17 2h.37l.84-.1c7-1.3 13.05-11.86 13.72-13.06 2.63-4.69 3.2-7.53 3.3-10.9a5.68 5.68 0 0 0 -.59-2.76m-13.25 9a1.67 1.67 0 0 1 -.4.19 2.87 2.87 0 0 0 .4-.19m9.1-1.88c-1.51 4.76-6.08 11.34-9.79 14.1a7.31 7.31 0 0 1 -3.61 1.65c-.09 0-.17 0-.13 0h-.15a2 2 0 0 1 -1.26-2.07c0-1.78 1.06-4.27 2-6a2.09 2.09 0 0 0 .93.15 1.93 1.93 0 0 0 1.72-1.84 2.41 2.41 0 0 0 -.37-1.22c-.09-.17-.18-.34-.24-.49l.13-.17c1.17-1.57 1.62-2.09 1.75-2.23a4.22 4.22 0 0 0 2-2.79 2.12 2.12 0 0 0 -.69-1.57l-.09-.07a16.26 16.26 0 0 1 4.83-3.4 6.57 6.57 0 0 1 1.32-.24 4.63 4.63 0 0 1 .51 0 2 2 0 0 1 2 2.23 15.84 15.84 0 0 1 -.79 4m-73.3 9.9a6.28 6.28 0 0 0 -4.94-2.92 7.81 7.81 0 0 0 -1.17 0c-2.6.25-4.5 1.39-6.93 3.27a17.26 17.26 0 0 0 -4.34 4.91 9.18 9.18 0 0 0 -1.61 4.34 1.07 1.07 0 0 1 -.19.67 30.06 30.06 0 0 0 -3.59 7.9 12.06 12.06 0 0 0 -.3 2.77 6.42 6.42 0 0 0 1.33 4 5.19 5.19 0 0 0 4.17 2h.37l.84-.1c7-1.3 13.05-11.86 13.72-13.06 2.63-4.7 3.21-7.54 3.3-10.9a5.87 5.87 0 0 0 -.58-2.77l-.08-.13m-13.18 9.17a2 2 0 0 1 -.41.2 3.07 3.07 0 0 0 .41-.2m9.11-1.89c-1.52 4.76-6.09 11.35-9.79 14.11a7.25 7.25 0 0 1 -3.62 1.64c-.09 0-.17 0-.13 0h-.14a2 2 0 0 1 -1.26-2.07c0-1.78 1.05-4.27 1.95-6a2.1 2.1 0 0 0 .93.14 1.93 1.93 0 0 0 1.72-1.84 2.41 2.41 0 0 0 -.37-1.21c-.09-.17-.18-.34-.24-.49l.13-.18c1.17-1.57 1.62-2.08 1.75-2.22a4.21 4.21 0 0 0 2-2.8 2.1 2.1 0 0 0 -.68-1.55l-.1-.09a16 16 0 0 1 4.84-3.39 5.68 5.68 0 0 1 1.32-.24 2.91 2.91 0 0 1 .5 0 2 2 0 0 1 2 2.22 16 16 0 0 1 -.78 4"/></g></svg>